<svg width="216" height="205" viewBox="0 0 216 205" fill="none" xmlns="http://www.w3.org/2000/svg">
<g opacity="0.8" clip-path="url(#clip0_2234_9590)">
<path d="M34.0829 143.335C35.2502 144.232 35.4507 145.783 34.5507 146.954C33.6506 148.126 32.1002 148.331 30.9329 147.434C29.7656 146.537 29.5651 144.986 30.4652 143.815C31.3652 142.644 33.0129 142.513 34.0829 143.335Z" fill="#FFCF2D"/>
<path d="M47.5082 125.864C48.6755 126.761 48.876 128.312 47.9759 129.484C47.0759 130.655 45.5255 130.86 44.3582 129.963C43.1909 129.066 42.9904 127.515 43.8905 126.344C44.7155 125.27 46.4382 125.042 47.5082 125.864Z" fill="#FFCF2D"/>
<path d="M60.8583 108.492C62.0256 109.389 62.2261 110.94 61.326 112.112C60.426 113.283 58.8756 113.488 57.7083 112.591C56.541 111.694 56.3405 110.143 57.2406 108.972C58.1406 107.801 59.7883 107.67 60.8583 108.492Z" fill="#FFCF2D"/>
<path d="M74.2836 91.0225C75.4509 91.9195 75.6514 93.4707 74.7513 94.6418C73.8513 95.813 72.3008 96.0186 71.1336 95.1216C69.9663 94.2245 69.7658 92.6734 70.6659 91.5022C71.5659 90.3311 73.2136 90.2002 74.2836 91.0225Z" fill="#FFCF2D"/>
<path d="M87.7089 73.5528C88.8762 74.4498 89.0766 76.001 88.1766 77.1721C87.2766 78.3433 85.7261 78.5489 84.5589 77.6518C83.3916 76.7548 83.1911 75.2037 84.0911 74.0325C84.9162 72.9589 86.6389 72.7305 87.7089 73.5528Z" fill="#FFCF2D"/>
<path d="M101.134 56.0831C102.301 56.9801 102.502 58.5312 101.602 59.7024C100.702 60.8736 99.1514 61.0792 97.9841 60.1821C96.8169 59.2851 96.6164 57.7339 97.5164 56.5628C98.4165 55.3916 100.064 55.2608 101.134 56.0831Z" fill="#FFCF2D"/>
<path d="M114.484 38.711C115.652 39.608 115.852 41.1592 114.952 42.3303C114.052 43.5015 112.502 43.7071 111.334 42.81C110.167 41.913 109.967 40.3619 110.867 39.1907C111.767 38.0195 113.414 37.8887 114.484 38.711Z" fill="#FFCF2D"/>
<path d="M127.91 21.2413C129.077 22.1383 129.277 23.6894 128.377 24.8606C127.477 26.0318 125.927 26.2374 124.76 25.3403C123.592 24.4433 123.392 22.8921 124.292 21.721C125.192 20.5498 126.84 20.419 127.91 21.2413Z" fill="#FFCF2D"/>
<path d="M141.335 3.77155C142.502 4.66858 142.703 6.21972 141.803 7.39088C140.903 8.56203 139.352 8.76763 138.185 7.87059C137.018 6.97356 136.817 5.42241 137.717 4.25125C138.542 3.17769 140.265 2.94926 141.335 3.77155Z" fill="#FFCF2D"/>
<path d="M48.5766 154.473C49.7439 155.37 49.9443 156.921 49.0443 158.092C48.1443 159.263 46.5938 159.469 45.4265 158.572C44.2593 157.675 44.0588 156.124 44.9588 154.952C45.8588 153.781 47.4093 153.576 48.5766 154.473Z" fill="#FFCF2D"/>
<path d="M62.0019 137.003C63.1692 137.9 63.3696 139.451 62.4696 140.622C61.5696 141.793 60.0191 141.999 58.8518 141.102C57.6845 140.205 57.4841 138.654 58.3841 137.483C59.2091 136.409 60.8346 136.106 62.0019 137.003Z" fill="#FFCF2D"/>
<path d="M75.352 119.631C76.5193 120.528 76.7197 122.079 75.8197 123.25C74.9197 124.421 73.3692 124.627 72.2019 123.73C71.0346 122.833 70.8342 121.282 71.7342 120.111C72.6342 118.939 74.1847 118.734 75.352 119.631Z" fill="#FFCF2D"/>
<path d="M88.7773 102.161C89.9446 103.058 90.145 104.609 89.245 105.781C88.345 106.952 86.7945 107.157 85.6272 106.26C84.4599 105.363 84.2595 103.812 85.1595 102.641C86.0595 101.47 87.61 101.264 88.7773 102.161Z" fill="#FFCF2D"/>
<path d="M102.203 84.6905C103.37 85.5875 103.57 87.1387 102.67 88.3098C101.77 89.481 100.22 89.6866 99.0525 88.7895C97.8852 87.8925 97.6848 86.3414 98.5848 85.1702C99.4098 84.0966 101.035 83.7934 102.203 84.6905Z" fill="#FFCF2D"/>
<path d="M115.628 67.2208C116.795 68.1178 116.996 69.6689 116.096 70.8401C115.196 72.0113 113.645 72.2169 112.478 71.3198C111.311 70.4228 111.11 68.8716 112.01 67.7005C112.91 66.5293 114.461 66.3237 115.628 67.2208Z" fill="#FFCF2D"/>
<path d="M128.978 49.8487C130.145 50.7457 130.346 52.2969 129.446 53.468C128.546 54.6392 126.995 54.8448 125.828 53.9477C124.661 53.0507 124.46 51.4996 125.36 50.3284C126.26 49.1572 127.811 48.9517 128.978 49.8487Z" fill="#FFCF2D"/>
<path d="M142.403 32.3789C143.571 33.276 143.771 34.8271 142.871 35.9983C141.971 37.1695 140.42 37.3751 139.253 36.478C138.086 35.581 137.885 34.0298 138.785 32.8587C139.685 31.6875 141.236 31.4819 142.403 32.3789Z" fill="#FFCF2D"/>
<path d="M155.829 14.9092C156.996 15.8063 157.196 17.3574 156.296 18.5286C155.396 19.6997 153.846 19.9053 152.678 19.0083C151.511 18.1113 151.311 16.5601 152.211 15.3889C153.036 14.3154 154.661 14.0122 155.829 14.9092Z" fill="#FFCF2D"/>
<path d="M5.1928 121.133C6.36008 122.03 6.56053 123.581 5.66052 124.752C4.7605 125.923 3.21003 126.129 2.04275 125.232C0.875462 124.335 0.675012 122.784 1.57503 121.613C2.47504 120.441 4.02552 120.236 5.1928 121.133Z" fill="#FFCF2D"/>
<path d="M18.6181 103.663C19.7854 104.56 19.9858 106.111 19.0858 107.282C18.1858 108.454 16.6353 108.659 15.468 107.762C14.3008 106.865 14.1003 105.314 15.0003 104.143C15.8253 103.069 17.4508 102.766 18.6181 103.663Z" fill="#FFCF2D"/>
<path d="M31.9682 86.2911C33.1355 87.1881 33.3359 88.7392 32.4359 89.9104C31.5359 91.0816 29.9854 91.2872 28.8181 90.3901C27.6509 89.4931 27.5254 87.8443 28.3504 86.7708C29.2504 85.5996 30.8009 85.394 31.9682 86.2911Z" fill="#FFCF2D"/>
<path d="M45.3935 68.8213C46.5608 69.7184 46.7612 71.2695 45.8612 72.4407C44.9612 73.6118 43.4107 73.8174 42.2434 72.9204C41.0761 72.0234 40.9507 70.3746 41.7757 69.3011C42.6007 68.2275 44.2262 67.9243 45.3935 68.8213Z" fill="#FFCF2D"/>
<path d="M58.8188 51.3516C59.9861 52.2486 60.1865 53.7998 59.2865 54.971C58.3865 56.1421 56.836 56.3477 55.6687 55.4507C54.5014 54.5536 54.301 53.0025 55.201 51.8313C56.026 50.7578 57.6515 50.4546 58.8188 51.3516Z" fill="#FFCF2D"/>
<path d="M72.2441 33.8809C73.4114 34.7779 73.6118 36.3291 72.7118 37.5002C71.8118 38.6714 70.2613 38.877 69.094 37.98C67.9267 37.0829 67.7263 35.5318 68.6263 34.3606C69.5263 33.1895 71.0768 32.9839 72.2441 33.8809Z" fill="#FFCF2D"/>
<path d="M85.5942 16.5088C86.7614 17.4059 86.9619 18.957 86.0619 20.1282C85.1619 21.2993 83.6114 21.5049 82.4441 20.6079C81.2768 19.7109 81.0764 18.1597 81.9764 16.9886C82.8764 15.8174 84.4269 15.6118 85.5942 16.5088Z" fill="#FFCF2D"/>
<path d="M99.0195 -0.960898C100.187 -0.0638619 100.387 1.48729 99.4872 2.65845C98.5872 3.82961 97.0367 4.03521 95.8694 3.13817C94.7021 2.24114 94.5017 0.68999 95.4017 -0.481172C96.3017 -1.65233 97.8522 -1.85793 99.0195 -0.960898Z" fill="#FFCF2D"/>
<path d="M19.6865 132.272C20.8537 133.169 21.0542 134.72 20.1542 135.891C19.2542 137.062 17.6064 137.193 16.5364 136.371C15.3691 135.474 15.1687 133.922 16.0687 132.751C16.9687 131.58 18.5192 131.374 19.6865 132.272Z" fill="#FFCF2D"/>
<path d="M33.1117 114.801C34.279 115.698 34.4795 117.249 33.5795 118.42C32.6794 119.591 31.129 119.797 29.9617 118.9C28.7944 118.003 28.594 116.452 29.494 115.281C30.319 114.207 31.9445 113.904 33.1117 114.801Z" fill="#FFCF2D"/>
<path d="M46.4618 97.4288C47.6291 98.3258 47.8296 99.8769 46.9296 101.048C46.0295 102.219 44.4791 102.425 43.3118 101.528C42.1445 100.631 41.9441 99.0796 42.8441 97.9085C43.7441 96.7373 45.2946 96.5317 46.4618 97.4288Z" fill="#FFCF2D"/>
<path d="M59.8871 79.959C61.0544 80.8561 61.2549 82.4072 60.3549 83.5784C59.4548 84.7495 57.9044 84.9551 56.7371 84.0581C55.5698 83.1611 55.3693 81.6099 56.2694 80.4387C57.1694 79.2676 58.7199 79.062 59.8871 79.959Z" fill="#FFCF2D"/>
<path d="M73.3124 62.4893C74.4797 63.3863 74.6802 64.9375 73.7801 66.1086C72.8801 67.2798 71.3297 67.4854 70.1624 66.5884C68.9951 65.6913 68.7946 64.1402 69.6947 62.969C70.5197 61.8955 72.1451 61.5923 73.3124 62.4893Z" fill="#FFCF2D"/>
<path d="M86.7377 45.0196C87.905 45.9166 88.1055 47.4678 87.2054 48.6389C86.3054 49.8101 84.7549 50.0157 83.5877 49.1186C82.4204 48.2216 82.2199 46.6705 83.1199 45.4993C84.02 44.3281 85.5704 44.1225 86.7377 45.0196Z" fill="#FFCF2D"/>
<path d="M100.088 27.6475C101.255 28.5445 101.456 30.0957 100.556 31.2669C99.6555 32.438 98.105 32.6436 96.9378 31.7466C95.7705 30.8495 95.57 29.2984 96.47 28.1272C97.3701 26.9561 98.9205 26.7505 100.088 27.6475Z" fill="#FFCF2D"/>
<path d="M113.513 10.1778C114.68 11.0748 114.881 12.626 113.981 13.7971C113.081 14.9683 111.53 15.1739 110.363 14.2768C109.196 13.3798 108.995 11.8287 109.895 10.6575C110.795 9.48634 112.346 9.28074 113.513 10.1778Z" fill="#FFCF2D"/>
<path d="M62.9736 165.536C64.1408 166.433 64.3413 167.984 63.4413 169.156C62.5413 170.327 60.9908 170.532 59.8235 169.635C58.6562 168.738 58.4558 167.187 59.3558 166.016C60.2558 164.845 61.9036 164.714 62.9736 165.536Z" fill="#FFCF2D"/>
<path d="M76.3989 148.066C77.5661 148.963 77.7666 150.515 76.8666 151.686C75.9665 152.857 74.4161 153.063 73.2488 152.166C72.0815 151.268 71.8811 149.717 72.7811 148.546C73.6061 147.473 75.3288 147.244 76.3989 148.066Z" fill="#FFCF2D"/>
<path d="M89.749 130.694C90.9162 131.591 91.1167 133.143 90.2167 134.314C89.3167 135.485 87.7662 135.69 86.5989 134.793C85.4316 133.896 85.2312 132.345 86.1312 131.174C87.0312 130.003 88.6789 129.872 89.749 130.694Z" fill="#FFCF2D"/>
<path d="M103.174 113.225C104.342 114.122 104.542 115.673 103.642 116.844C102.742 118.015 101.191 118.221 100.024 117.324C98.8569 116.427 98.6565 114.876 99.5565 113.704C100.456 112.533 102.104 112.402 103.174 113.225Z" fill="#FFCF2D"/>
<path d="M116.6 95.7549C117.767 96.652 117.967 98.2031 117.067 99.3743C116.167 100.545 114.617 100.751 113.449 99.854C112.282 98.957 112.082 97.4058 112.982 96.2346C113.807 95.1611 115.53 94.9326 116.6 95.7549Z" fill="#FFCF2D"/>
<path d="M130.025 78.2842C131.192 79.1813 131.393 80.7324 130.493 81.9036C129.593 83.0747 128.042 83.2803 126.875 82.3833C125.707 81.4863 125.507 79.9351 126.407 78.7639C127.307 77.5928 128.955 77.4619 130.025 78.2842Z" fill="#FFCF2D"/>
<path d="M143.375 60.9121C144.542 61.8092 144.743 63.3603 143.843 64.5315C142.943 65.7027 141.392 65.9083 140.225 65.0112C139.058 64.1142 138.857 62.563 139.757 61.3919C140.657 60.2207 142.305 60.0899 143.375 60.9121Z" fill="#FFCF2D"/>
<path d="M156.8 43.4424C157.968 44.3395 158.168 45.8906 157.268 47.0618C156.368 48.2329 154.817 48.4385 153.65 47.5415C152.483 46.6445 152.282 45.0933 153.182 43.9221C154.082 42.751 155.73 42.6201 156.8 43.4424Z" fill="#FFCF2D"/>
<path d="M170.226 25.9727C171.393 26.8697 171.593 28.4209 170.693 29.592C169.793 30.7632 168.243 30.9688 167.075 30.0718C165.908 29.1747 165.708 27.6236 166.608 26.4524C167.433 25.3789 169.155 25.1504 170.226 25.9727Z" fill="#FFCF2D"/>
<path d="M77.4672 176.674C78.6345 177.571 78.8349 179.122 77.9349 180.293C77.0349 181.464 75.4844 181.67 74.3172 180.773C73.1499 179.876 72.9494 178.325 73.8494 177.154C74.7495 175.982 76.2999 175.777 77.4672 176.674Z" fill="#FFCF2D"/>
<path d="M90.8925 159.204C92.0598 160.101 92.2602 161.652 91.3602 162.823C90.4602 163.995 88.9097 164.2 87.7424 163.303C86.5752 162.406 86.3747 160.855 87.2747 159.684C88.0998 158.61 89.7252 158.307 90.8925 159.204Z" fill="#FFCF2D"/>
<path d="M104.243 141.832C105.41 142.729 105.61 144.28 104.71 145.451C103.81 146.623 102.26 146.828 101.093 145.931C99.9253 145.034 99.7248 143.483 100.625 142.312C101.525 141.141 103.075 140.935 104.243 141.832Z" fill="#FFCF2D"/>
<path d="M118.136 127.982C119.005 126.85 118.796 125.229 117.668 124.362C116.54 123.495 114.92 123.71 114.05 124.842C113.18 125.974 113.39 127.594 114.518 128.461C115.646 129.328 117.266 129.114 118.136 127.982Z" fill="#FFCF2D"/>
<path d="M131.093 106.893C132.26 107.79 132.461 109.341 131.561 110.512C130.661 111.683 129.11 111.889 127.943 110.992C126.776 110.095 126.575 108.544 127.475 107.372C128.3 106.299 129.926 105.996 131.093 106.893Z" fill="#FFCF2D"/>
<path d="M144.518 89.4229C145.686 90.3199 145.886 91.8711 144.986 93.0422C144.086 94.2134 142.536 94.419 141.368 93.522C140.201 92.6249 140.001 91.0738 140.901 89.9026C141.801 88.7315 143.351 88.5259 144.518 89.4229Z" fill="#FFCF2D"/>
<path d="M157.869 72.0508C159.036 72.9479 159.236 74.499 158.336 75.6702C157.436 76.8413 155.886 77.0469 154.719 76.1499C153.551 75.2529 153.351 73.7017 154.251 72.5305C155.151 71.3594 156.701 71.1538 157.869 72.0508Z" fill="#FFCF2D"/>
<path d="M171.762 58.2004C172.631 57.0685 172.422 55.4481 171.294 54.5811C170.166 53.7141 168.546 53.9289 167.676 55.0608C166.806 56.1927 167.016 57.8132 168.144 58.6802C169.272 59.5471 170.892 59.3324 171.762 58.2004Z" fill="#FFCF2D"/>
<path d="M184.719 37.1114C185.886 38.0084 186.087 39.5595 185.187 40.7307C184.287 41.9019 182.736 42.1075 181.569 41.2104C180.402 40.3134 180.201 38.7622 181.101 37.5911C181.926 36.5175 183.552 36.2143 184.719 37.1114Z" fill="#FFCF2D"/>
<path d="M91.9609 187.813C93.1282 188.71 93.3286 190.261 92.4286 191.432C91.5286 192.603 89.9781 192.809 88.8108 191.912C87.6435 191.015 87.4431 189.463 88.3431 188.292C89.2431 187.121 90.7936 186.916 91.9609 187.813Z" fill="#FFCF2D"/>
<path d="M105.386 170.343C106.553 171.24 106.754 172.791 105.854 173.962C104.954 175.133 103.403 175.339 102.236 174.442C101.069 173.545 100.868 171.994 101.768 170.823C102.593 169.749 104.219 169.446 105.386 170.343Z" fill="#FFCF2D"/>
<path d="M118.736 152.971C119.904 153.868 120.104 155.419 119.204 156.59C118.304 157.761 116.753 157.967 115.586 157.07C114.419 156.173 114.218 154.622 115.118 153.45C116.018 152.279 117.569 152.074 118.736 152.971Z" fill="#FFCF2D"/>
<path d="M132.162 135.501C133.329 136.398 133.529 137.949 132.629 139.12C131.729 140.292 130.179 140.497 129.012 139.6C127.844 138.703 127.644 137.152 128.544 135.981C129.444 134.81 130.994 134.604 132.162 135.501Z" fill="#FFCF2D"/>
<path d="M145.587 118.031C146.754 118.928 146.955 120.479 146.055 121.651C145.155 122.822 143.604 123.027 142.437 122.13C141.27 121.233 141.069 119.682 141.969 118.511C142.794 117.437 144.42 117.134 145.587 118.031Z" fill="#FFCF2D"/>
<path d="M159.012 100.561C160.179 101.458 160.38 103.009 159.48 104.18C158.58 105.351 157.029 105.557 155.862 104.66C154.695 103.763 154.494 102.211 155.394 101.04C156.294 99.8692 157.845 99.6636 159.012 100.561Z" fill="#FFCF2D"/>
<path d="M172.362 83.1885C173.53 84.0856 173.73 85.6367 172.83 86.8079C171.93 87.979 170.379 88.1846 169.212 87.2876C168.045 86.3906 167.844 84.8394 168.744 83.6682C169.644 82.4971 171.195 82.2915 172.362 83.1885Z" fill="#FFCF2D"/>
<path d="M185.788 65.7188C186.955 66.6158 187.155 68.167 186.255 69.3381C185.355 70.5093 183.805 70.7149 182.637 69.8179C181.47 68.9208 181.27 67.3697 182.17 66.1985C183.07 65.0274 184.62 64.8218 185.788 65.7188Z" fill="#FFCF2D"/>
<path d="M199.213 48.2491C200.38 49.1461 200.581 50.6973 199.681 51.8684C198.781 53.0396 197.23 53.2452 196.063 52.3481C194.895 51.4511 194.695 49.8999 195.595 48.7288C196.42 47.6552 198.046 47.352 199.213 48.2491Z" fill="#FFCF2D"/>
<path d="M106.357 198.876C107.525 199.773 107.725 201.324 106.825 202.495C105.925 203.667 104.375 203.872 103.207 202.975C102.04 202.078 101.84 200.527 102.74 199.356C103.64 198.185 105.287 198.054 106.357 198.876Z" fill="#FFCF2D"/>
<path d="M119.783 181.406C120.95 182.303 121.15 183.854 120.25 185.026C119.35 186.197 117.8 186.402 116.633 185.505C115.465 184.608 115.265 183.057 116.165 181.886C116.99 180.812 118.713 180.584 119.783 181.406Z" fill="#FFCF2D"/>
<path d="M133.133 164.034C134.3 164.931 134.5 166.482 133.6 167.654C132.7 168.825 131.15 169.03 129.983 168.133C128.815 167.236 128.615 165.685 129.515 164.514C130.415 163.343 132.063 163.212 133.133 164.034Z" fill="#FFCF2D"/>
<path d="M146.558 146.564C147.725 147.462 147.926 149.013 147.026 150.184C146.126 151.355 144.575 151.561 143.408 150.664C142.241 149.767 142.04 148.215 142.94 147.044C143.84 145.873 145.488 145.742 146.558 146.564Z" fill="#FFCF2D"/>
<path d="M159.983 129.094C161.151 129.991 161.351 131.542 160.451 132.713C159.551 133.884 158.001 134.09 156.833 133.193C155.666 132.296 155.466 130.745 156.366 129.574C157.191 128.5 158.913 128.272 159.983 129.094Z" fill="#FFCF2D"/>
<path d="M173.409 111.624C174.576 112.521 174.776 114.072 173.876 115.243C172.976 116.415 171.426 116.62 170.259 115.723C169.091 114.826 168.891 113.275 169.791 112.104C170.691 110.933 172.339 110.802 173.409 111.624Z" fill="#FFCF2D"/>
<path d="M186.759 94.252C187.926 95.149 188.126 96.7002 187.226 97.8713C186.326 99.0425 184.776 99.2481 183.609 98.3511C182.441 97.454 182.241 95.9029 183.141 94.7317C184.041 93.5606 185.689 93.4297 186.759 94.252Z" fill="#FFCF2D"/>
<path d="M200.184 76.7823C201.351 77.6793 201.552 79.2305 200.652 80.4016C199.752 81.5728 198.201 81.7784 197.034 80.8813C195.867 79.9843 195.666 78.4332 196.566 77.262C197.466 76.0908 199.114 75.96 200.184 76.7823Z" fill="#FFCF2D"/>
<path d="M213.609 59.3126C214.777 60.2096 214.977 61.7607 214.077 62.9319C213.177 64.103 211.627 64.3086 210.459 63.4116C209.292 62.5146 209.092 60.9634 209.992 59.7923C210.817 58.7187 212.539 58.4903 213.609 59.3126Z" fill="#FFCF2D"/>
</g>
<defs>
<clipPath id="clip0_2234_9590">
<rect width="181.184" height="132.739" fill="white" transform="translate(0 123.662) rotate(-52.4584)"/>
</clipPath>
</defs>
</svg>
